# xmcd
#
# Track frame offsets:
#	150
#	14291
#	28246
#	44384
#	58984
#	72008
#	82280
#	92809
#	107295
#	125665
#	138931
#	154904
#	168278
#
# Disc length: 2570 seconds
#
# Revision: 0
# Processed by: cddbd v1.5.2PL0 Copyright (c) Steve Scherf et al.
# Submitted via: audiograbber 1.83.01
#
DISCID=b00a080d
DTITLE=Motörhead - Bad Magic
DYEAR=2015
DGENRE=Metal
TTITLE0=Victory Or Die
TTITLE1=Thunder and Lightning
TTITLE2=Fire Storm Hotel
TTITLE3=Shoot Out All of Your Lights
TTITLE4=The Devil
TTITLE5=Electricity
TTITLE6=Evil Eye
TTITLE7=Teach Them How To Bleed
TTITLE8=Till The End
TTITLE9=Tell Me Who To Kill
TTITLE10=Choking On Your Screams
TTITLE11=When The Sky Comes Looking For You
TTITLE12=Sympathy For The Devil
EXTD=
EXTT0=
EXTT1=
EXTT2=
EXTT3=
EXTT4=
EXTT5=
EXTT6=
EXTT7=
EXTT8=
EXTT9=
EXTT10=
EXTT11=
EXTT12=
PLAYORDER=
